# xmcd
#
# Track frame offsets: 
#        150
#        10167
#        24468
#        41283
#        51013
#        67930
#        77082
#        87856
#        98426
#        109689
#        121873
#        134581
#        143861
#        156739
#        165729
#
# Disc length: 2347 seconds
#
# Revision: 0
# Processed by: cddbd v1.5.2PL0 Copyright (c) Steve Scherf et al.
# Submitted via: ExactAudioCopy v0.99pb3
#
DISCID=b909290f
DTITLE=Various Artist - Golden '60s
DYEAR=1900
DGENRE=Country
TTITLE0=Are You From Dixie?-Jerry Reed
TTITLE1=I'm A Truck-Red Simpson
TTITLE2=Kay-John Wesley Ryles
TTITLE3=Don't Come Home A Drinkin'(With Lovin' On Your
TTITLE4=Faded Love-Patsy Cline
TTITLE5=Ruby Ann-Marty Robbinson
TTITLE6=Just Someone I Used To know-Porter wagoner&Dolly Parton
TTITLE7=Once A Day-Connie Smith
TTITLE8=take Good Care Of Her-Sonny James
TTITLE9=A Wound Time Can't Erase-Stonewall Jackson
TTITLE10=Still-Bill Anderson
TTITLE11=Your Good Girl Gonna Go Bad-Tammy Wynette
TTITLE12=Next In Line-Conway Twitty
TTITLE13=I Remember You-Frank Infield
TTITLE14=Walk Through This world with Me-George Jones
EXTD=
EXTT0=
EXTT1=
EXTT2=
EXTT3=
EXTT4=
EXTT5=
EXTT6=
EXTT7=
EXTT8=
EXTT9=
EXTT10=
EXTT11=
EXTT12=
EXTT13=
EXTT14=
PLAYORDER=
